<svg width="25" height="25" viewBox="0 0 25 25" fill="none" xmlns="http://www.w3.org/2000/svg">
<path d="M5.60419 3.02087H19.6042C20.1346 3.02087 20.6433 3.23159 21.0184 3.60666C21.3935 3.98173 21.6042 4.49044 21.6042 5.02087V19.0209C21.6042 19.5513 21.3935 20.06 21.0184 20.4351C20.6433 20.8102 20.1346 21.0209 19.6042 21.0209H5.60419C5.07375 21.0209 4.56505 20.8102 4.18997 20.4351C3.8149 20.06 3.60419 19.5513 3.60419 19.0209V5.02087C3.60419 4.49044 3.8149 3.98173 4.18997 3.60666C4.56505 3.23159 5.07375 3.02087 5.60419 3.02087ZM7.60419 5.02087C7.07375 5.02087 6.56505 5.23159 6.18997 5.60666C5.8149 5.98173 5.60419 6.49044 5.60419 7.02087C5.60419 7.55131 5.8149 8.06001 6.18997 8.43509C6.56505 8.81016 7.07375 9.02087 7.60419 9.02087C8.13462 9.02087 8.64333 8.81016 9.0184 8.43509C9.39347 8.06001 9.60419 7.55131 9.60419 7.02087C9.60419 6.49044 9.39347 5.98173 9.0184 5.60666C8.64333 5.23159 8.13462 5.02087 7.60419 5.02087ZM17.6042 15.0209C17.0738 15.0209 16.565 15.2316 16.19 15.6067C15.8149 15.9817 15.6042 16.4904 15.6042 17.0209C15.6042 17.5513 15.8149 18.06 16.19 18.4351C16.565 18.8102 17.0738 19.0209 17.6042 19.0209C18.1346 19.0209 18.6433 18.8102 19.0184 18.4351C19.3935 18.06 19.6042 17.5513 19.6042 17.0209C19.6042 16.4904 19.3935 15.9817 19.0184 15.6067C18.6433 15.2316 18.1346 15.0209 17.6042 15.0209ZM17.6042 10.0209C17.0738 10.0209 16.565 10.2316 16.19 10.6067C15.8149 10.9817 15.6042 11.4904 15.6042 12.0209C15.6042 12.5513 15.8149 13.06 16.19 13.4351C16.565 13.8102 17.0738 14.0209 17.6042 14.0209C18.1346 14.0209 18.6433 13.8102 19.0184 13.4351C19.3935 13.06 19.6042 12.5513 19.6042 12.0209C19.6042 11.4904 19.3935 10.9817 19.0184 10.6067C18.6433 10.2316 18.1346 10.0209 17.6042 10.0209ZM17.6042 5.02087C17.0738 5.02087 16.565 5.23159 16.19 5.60666C15.8149 5.98173 15.6042 6.49044 15.6042 7.02087C15.6042 7.55131 15.8149 8.06001 16.19 8.43509C16.565 8.81016 17.0738 9.02087 17.6042 9.02087C18.1346 9.02087 18.6433 8.81016 19.0184 8.43509C19.3935 8.06001 19.6042 7.55131 19.6042 7.02087C19.6042 6.49044 19.3935 5.98173 19.0184 5.60666C18.6433 5.23159 18.1346 5.02087 17.6042 5.02087ZM7.60419 10.0209C7.07375 10.0209 6.56505 10.2316 6.18997 10.6067C5.8149 10.9817 5.60419 11.4904 5.60419 12.0209C5.60419 12.5513 5.8149 13.06 6.18997 13.4351C6.56505 13.8102 7.07375 14.0209 7.60419 14.0209C8.13462 14.0209 8.64333 13.8102 9.0184 13.4351C9.39347 13.06 9.60419 12.5513 9.60419 12.0209C9.60419 11.4904 9.39347 10.9817 9.0184 10.6067C8.64333 10.2316 8.13462 10.0209 7.60419 10.0209ZM7.60419 15.0209C7.07375 15.0209 6.56505 15.2316 6.18997 15.6067C5.8149 15.9817 5.60419 16.4904 5.60419 17.0209C5.60419 17.5513 5.8149 18.06 6.18997 18.4351C6.56505 18.8102 7.07375 19.0209 7.60419 19.0209C8.13462 19.0209 8.64333 18.8102 9.0184 18.4351C9.39347 18.06 9.60419 17.5513 9.60419 17.0209C9.60419 16.4904 9.39347 15.9817 9.0184 15.6067C8.64333 15.2316 8.13462 15.0209 7.60419 15.0209Z" fill="white"/>
</svg>
