<svg width="25" height="25" viewBox="0 0 25 25" fill="none" xmlns="http://www.w3.org/2000/svg">
<path d="M13.5652 3.08777C11.1783 3.08777 8.88908 4.03598 7.20125 5.72381C5.51343 7.41163 4.56522 9.70082 4.56522 12.0878H1.56522L5.45522 15.9778L5.52522 16.1178L9.56522 12.0878H6.56522C6.56522 10.2313 7.30271 8.45078 8.61547 7.13802C9.92822 5.82527 11.7087 5.08777 13.5652 5.08777C15.4217 5.08777 17.2022 5.82527 18.515 7.13802C19.8277 8.45078 20.5652 10.2313 20.5652 12.0878C20.5652 13.9443 19.8277 15.7248 18.515 17.0375C17.2022 18.3503 15.4217 19.0878 13.5652 19.0878C11.6352 19.0878 9.88522 18.2978 8.62522 17.0278L7.20522 18.4478C8.83522 20.0878 11.0652 21.0878 13.5652 21.0878C15.9522 21.0878 18.2413 20.1396 19.9292 18.4517C21.617 16.7639 22.5652 14.4747 22.5652 12.0878C22.5652 9.70082 21.617 7.41163 19.9292 5.72381C18.2413 4.03598 15.9522 3.08777 13.5652 3.08777Z" fill="white"/>
</svg>
