<svg width="42" height="32" viewBox="0 0 42 32" fill="none" xmlns="http://www.w3.org/2000/svg">
<path d="M32.5123 31.5132C30.5342 31.2227 28.8078 30.9506 28.6759 30.9086C28.2472 30.7719 27.7941 30.3403 27.5984 29.8824C27.4394 29.5102 27.415 29.2895 27.4541 28.5805C27.4948 27.8425 27.6598 27.2022 28.6717 23.8537C29.8947 19.8071 30.1219 19.2024 30.6247 18.656C31.4903 17.7156 32.1265 17.6916 36.7804 18.4236C38.5739 18.7056 40.2269 18.9879 40.4536 19.0507C41.0599 19.2187 41.5605 19.6391 41.8107 20.1902C42.0013 20.6103 42.023 20.7823 41.9835 21.5668C41.9441 22.3501 41.8039 22.9232 40.8732 26.1034C40.2873 28.1055 39.6943 29.9921 39.5553 30.2959C39.4164 30.5997 39.1158 31.0268 38.8873 31.2449C37.8998 32.1873 37.2805 32.2134 32.5123 31.5132ZM37.2369 29.6998C37.5541 29.5299 37.8825 29.0168 37.883 28.6902C37.8837 28.2569 37.6199 27.9019 37.1629 27.7212C36.7891 27.5733 36.669 27.5661 36.3296 27.6714C35.6278 27.8892 35.1905 28.5287 35.3352 29.1257C35.4096 29.4326 35.8037 29.8328 36.093 29.8953C36.3905 29.9596 36.9211 29.8688 37.2369 29.6998ZM31.9998 28.8594C32.7894 28.3541 32.7887 27.334 31.9985 26.9458C31.562 26.7313 31.3148 26.741 30.8136 26.9922C29.9586 27.4208 29.8634 28.5089 30.6421 28.9523C30.9622 29.1346 31.6424 29.0881 31.9998 28.8594ZM37.8995 26.4825C38.7116 26.249 39.113 25.2332 38.6252 24.646C38.025 23.9235 36.4946 24.365 36.3114 25.3136C36.2254 25.759 36.4846 26.2413 36.9078 26.4232C37.3334 26.6061 37.4461 26.6129 37.8995 26.4825ZM32.7357 25.6548C33.5093 25.3201 33.7891 24.4894 33.3218 23.9144C32.8548 23.3397 31.9206 23.408 31.3703 24.057C30.5682 25.0029 31.56 26.1635 32.7357 25.6548ZM39.1339 22.9848C40.2202 22.4175 40.0479 21.0664 38.8743 20.9497C37.9963 20.8623 37.3052 21.4219 37.3113 22.2151C37.3145 22.6211 37.4582 22.8479 37.8445 23.0565C38.2349 23.2673 38.6354 23.245 39.1339 22.9848ZM33.5834 22.4108C34.0698 22.2709 34.5265 21.7145 34.5265 21.2617C34.5265 20.8071 34.3951 20.5643 34.0488 20.3789C33.0137 19.8246 31.6776 20.9179 32.1744 21.9126C32.3237 22.2117 32.7674 22.5012 33.0878 22.5086C33.1669 22.5104 33.39 22.4664 33.5834 22.4108ZM24.6922 28.2358C24.2011 27.7051 21.907 23.7668 21.648 23.0099C21.3117 22.0268 21.3405 21.8824 23.2148 15.164C24.1108 11.9522 24.4121 11.8967 27.0917 14.449C27.8939 15.2131 28.6566 16.0319 28.8181 16.3024C29.0849 16.7493 29.1073 16.8573 29.1055 17.6887C29.1036 18.5676 29.0704 18.6997 27.7829 22.9469C26.4277 27.4173 26.2442 27.9263 25.818 28.3972C25.4597 28.7931 25.1694 28.7515 24.6922 28.2358ZM25.3553 21.3746C25.9987 20.6557 25.9097 19.0549 25.2035 18.6454C24.9643 18.5067 24.9233 18.5109 24.676 18.6997C24.5086 18.8275 24.3419 19.1067 24.2324 19.4425C23.7928 20.7911 24.6135 22.2033 25.3553 21.3746ZM8.65574 21.6709C8.37957 21.5905 7.94796 21.4164 7.69663 21.284C7.0425 20.9393 2.03554 17.4155 1.59598 16.9904C0.730663 16.1536 0.753339 15.1418 1.65334 14.431C1.9967 14.1598 5.12052 12.5647 5.78025 12.3237C5.98954 12.2472 6.41055 12.1847 6.71581 12.1847C7.41192 12.1847 8.13089 12.5596 9.13323 13.4452C9.51605 13.7834 11.0302 15.097 12.4981 16.3643C14.0548 17.7083 15.3199 18.8797 15.534 19.1755C16.1529 20.0306 16.2141 20.7356 15.7024 21.1166C15.1729 21.5108 14.8031 21.5552 10.3088 21.7638C9.45489 21.8034 9.0283 21.7794 8.65574 21.6709ZM9.75255 19.8728C9.80993 19.692 9.28356 19.2205 8.72768 18.9548C8.11255 18.6607 7.45374 18.6064 7.40667 18.8459C7.36271 19.0696 7.83173 19.5233 8.39059 19.7977C8.89037 20.0431 9.68462 20.0869 9.75255 19.8728ZM13.18 19.5641C13.3873 19.0049 11.4308 17.9346 10.6628 18.187C9.9545 18.4198 10.9025 19.3903 12.122 19.6807C12.6823 19.8141 13.1046 19.7676 13.18 19.5641ZM9.31903 18.3049C9.54946 17.9475 8.578 17.1732 7.62035 16.9509C6.51573 16.6946 6.51492 17.3874 7.61907 18.0415C8.36603 18.484 9.1275 18.602 9.31903 18.3049ZM5.75068 17.2509C6.31119 16.9402 4.85481 15.7634 3.90672 15.7609C3.59451 15.7601 3.54706 15.7902 3.54706 15.9896C3.54706 16.1958 3.78147 16.4853 4.2328 16.8363C4.38538 16.955 5.33551 17.3379 5.49557 17.3453C5.5386 17.3472 5.6534 17.3048 5.75068 17.2509ZM8.80301 16.4352C8.99815 16.2331 8.93211 15.9796 8.5928 15.6283C7.78341 14.7902 6.13667 14.413 6.13667 15.0657C6.13667 15.7025 7.34487 16.5302 8.29947 16.5474C8.51312 16.5512 8.73971 16.5007 8.80301 16.4352ZM17.3583 18.845C16.8103 18.6717 16.2449 18.2862 15.1777 17.3581C14.5571 16.8185 13.4235 15.8338 12.6587 15.17C9.43643 12.3737 9.06021 11.9105 9.06456 10.7447C9.06644 10.24 9.12619 9.91534 9.28259 9.55994C9.59256 8.85554 13.7845 2.38675 14.2437 1.90414C14.4561 1.68094 14.8374 1.3943 15.091 1.26716C15.9006 0.861372 16.9851 1.08485 17.8061 1.82665C18.3481 2.31639 22.9776 7.52672 23.2591 7.96396C23.687 8.62835 23.8159 9.16287 23.6893 9.74789C23.5106 10.5733 19.8494 17.9226 19.3538 18.4506C18.9223 18.9103 18.0872 19.0754 17.3583 18.845ZM18.6105 15.1611C19.0225 14.9328 19.2058 14.1183 18.9827 13.507C18.8379 13.1102 18.4358 12.7043 18.0603 12.576C17.3344 12.3279 16.7086 13.1914 16.9671 14.0846C17.1366 14.6704 17.7168 15.2633 18.1206 15.2633C18.2886 15.2633 18.509 15.2173 18.6105 15.1611ZM14.7548 11.6459C15.7867 11.0934 15.0952 8.96158 13.8841 8.96158C12.7606 8.96158 12.6376 10.8115 13.711 11.564C14.0792 11.8221 14.3815 11.8458 14.7548 11.6459ZM20.8615 10.8319C21.3376 10.3 21.2468 9.36518 20.6602 8.75774C19.8171 7.88473 18.7037 8.74268 19.0889 9.96854C19.2422 10.4565 19.3942 10.6802 19.7268 10.9073C20.1219 11.177 20.5799 11.1465 20.8615 10.8319ZM17.1165 7.27988C17.5794 6.80064 17.5094 5.829 16.9658 5.18801C16.2418 4.33416 15.2728 4.61394 15.18 5.70363C15.075 6.93769 16.403 8.01867 17.1165 7.27988ZM35.8213 17.255C33.8695 16.9425 32.0443 16.6081 31.7654 16.512C31.0762 16.2746 30.5676 15.9034 28.6441 14.2341C26.2051 12.1174 25.7912 11.6308 25.9329 11.0463C26.0628 10.5106 27.2546 10.2604 28.6067 10.485C28.9876 10.5483 30.536 10.7983 32.0475 11.0405C34.926 11.5018 35.6999 11.7049 36.4927 12.2069C37.4065 12.7856 40.82 15.5416 41.3089 16.0955C42.0594 16.9457 42.0748 17.4039 41.3632 17.7118C40.8073 17.9525 39.5087 17.8454 35.8213 17.255ZM39.6098 16.0415C39.6098 15.609 38.5159 14.9389 37.4862 14.7406C37.0026 14.6475 36.8958 14.6544 36.768 14.7867C36.6483 14.9106 36.64 14.9852 36.7272 15.1539C36.944 15.5733 37.9652 16.1 38.8425 16.2449C39.3976 16.3366 39.6098 16.2803 39.6098 16.0415ZM35.5526 14.3044C35.734 13.8147 33.7485 12.9102 32.9485 13.1181C32.6613 13.1927 32.6244 13.4718 32.872 13.6966C33.5547 14.3165 35.3936 14.7334 35.5526 14.3044ZM31.5292 12.8173C31.6554 12.7822 31.745 12.6803 31.745 12.5718C31.745 12.147 30.3384 11.5506 29.4718 11.608C29.0958 11.6329 29.0069 11.6748 28.9861 11.8371C28.9261 12.305 30.7885 13.0228 31.5292 12.8173ZM0.149049 13.2204C-0.136949 12.9242 -0.00560783 12.094 0.493552 11.0426C0.649149 10.7149 1.45379 9.19824 2.28165 7.6723C4.34854 3.8625 4.43274 3.77435 7.53466 2.1728C11.2617 0.248475 12.362 -0.181922 12.9306 0.061975C13.2064 0.18023 13.2341 0.232132 13.2341 0.629465C13.2341 1.29833 12.7804 2.12289 10.3209 5.92429C7.67369 10.0158 7.3801 10.3591 5.9928 10.9859C5.46529 11.2242 4.17761 11.8596 3.13129 12.3978C1.51236 13.2306 1.15968 13.3764 0.764334 13.3764C0.469882 13.3764 0.244577 13.3193 0.149049 13.2204ZM3.30457 9.95776C4.29855 9.52772 5.19949 8.02349 4.56226 7.85789C3.81838 7.66457 2.16509 9.42262 2.59102 9.95403C2.73677 10.1359 2.89102 10.1367 3.30457 9.95776ZM9.18662 4.59586C9.74787 4.2914 10.3568 3.44865 10.3568 2.97631C10.3568 2.6733 10.3346 2.65082 10.0355 2.65082C9.31519 2.65082 8.20592 3.93528 8.39461 4.55084C8.46334 4.77506 8.819 4.79528 9.18662 4.59586Z" fill="#FCC26B"/>
</svg>
