<svg width="182" height="52" viewBox="0 0 182 52" fill="none" xmlns="http://www.w3.org/2000/svg">
<path d="M172.512 31.5132C170.534 31.2227 168.808 30.9506 168.676 30.9086C168.247 30.7719 167.794 30.3403 167.598 29.8824C167.439 29.5102 167.415 29.2895 167.454 28.5805C167.495 27.8425 167.66 27.2022 168.672 23.8537C169.895 19.8071 170.122 19.2024 170.625 18.656C171.49 17.7156 172.126 17.6916 176.78 18.4236C178.574 18.7056 180.227 18.9879 180.454 19.0507C181.06 19.2187 181.56 19.6391 181.811 20.1902C182.001 20.6103 182.023 20.7823 181.984 21.5668C181.944 22.3501 181.804 22.9232 180.873 26.1034C180.287 28.1055 179.694 29.9921 179.555 30.2959C179.416 30.5997 179.116 31.0268 178.887 31.2449C177.9 32.1873 177.281 32.2134 172.512 31.5132ZM177.237 29.6998C177.554 29.5299 177.883 29.0168 177.883 28.6902C177.884 28.2569 177.62 27.9019 177.163 27.7212C176.789 27.5733 176.669 27.5661 176.33 27.6714C175.628 27.8892 175.19 28.5287 175.335 29.1257C175.41 29.4326 175.804 29.8328 176.093 29.8953C176.39 29.9596 176.921 29.8688 177.237 29.6998ZM172 28.8594C172.789 28.3541 172.789 27.334 171.999 26.9458C171.562 26.7313 171.315 26.741 170.814 26.9922C169.959 27.4208 169.863 28.5089 170.642 28.9523C170.962 29.1346 171.642 29.0881 172 28.8594ZM177.899 26.4825C178.712 26.249 179.113 25.2332 178.625 24.646C178.025 23.9235 176.495 24.365 176.311 25.3136C176.225 25.759 176.485 26.2413 176.908 26.4232C177.333 26.6061 177.446 26.6129 177.899 26.4825ZM172.736 25.6548C173.509 25.3201 173.789 24.4894 173.322 23.9144C172.855 23.3397 171.921 23.408 171.37 24.057C170.568 25.0029 171.56 26.1635 172.736 25.6548ZM179.134 22.9848C180.22 22.4175 180.048 21.0664 178.874 20.9497C177.996 20.8623 177.305 21.4219 177.311 22.2151C177.314 22.6211 177.458 22.8479 177.845 23.0565C178.235 23.2673 178.635 23.245 179.134 22.9848ZM173.583 22.4108C174.07 22.2709 174.526 21.7145 174.526 21.2617C174.526 20.8071 174.395 20.5643 174.049 20.3789C173.014 19.8246 171.678 20.9179 172.174 21.9126C172.324 22.2117 172.767 22.5012 173.088 22.5086C173.167 22.5104 173.39 22.4664 173.583 22.4108ZM164.692 28.2358C164.201 27.7051 161.907 23.7668 161.648 23.0099C161.312 22.0268 161.341 21.8824 163.215 15.164C164.111 11.9522 164.412 11.8967 167.092 14.449C167.894 15.2131 168.657 16.0319 168.818 16.3024C169.085 16.7493 169.107 16.8573 169.106 17.6887C169.104 18.5676 169.07 18.6997 167.783 22.9469C166.428 27.4173 166.244 27.9263 165.818 28.3972C165.46 28.7931 165.169 28.7515 164.692 28.2358ZM165.355 21.3746C165.999 20.6557 165.91 19.0549 165.203 18.6454C164.964 18.5067 164.923 18.5109 164.676 18.6997C164.509 18.8275 164.342 19.1067 164.232 19.4425C163.793 20.7911 164.614 22.2033 165.355 21.3746ZM148.656 21.6709C148.38 21.5905 147.948 21.4164 147.697 21.284C147.042 20.9393 142.036 17.4155 141.596 16.9904C140.731 16.1536 140.753 15.1418 141.653 14.431C141.997 14.1598 145.121 12.5647 145.78 12.3237C145.99 12.2472 146.411 12.1847 146.716 12.1847C147.412 12.1847 148.131 12.5596 149.133 13.4452C149.516 13.7834 151.03 15.097 152.498 16.3643C154.055 17.7083 155.32 18.8797 155.534 19.1755C156.153 20.0306 156.214 20.7356 155.702 21.1166C155.173 21.5108 154.803 21.5552 150.309 21.7638C149.455 21.8034 149.028 21.7794 148.656 21.6709ZM149.753 19.8728C149.81 19.692 149.284 19.2205 148.728 18.9548C148.113 18.6607 147.454 18.6064 147.407 18.8459C147.363 19.0696 147.832 19.5233 148.391 19.7977C148.89 20.0431 149.685 20.0869 149.753 19.8728ZM153.18 19.5641C153.387 19.0049 151.431 17.9346 150.663 18.187C149.954 18.4198 150.903 19.3903 152.122 19.6807C152.682 19.8141 153.105 19.7676 153.18 19.5641ZM149.319 18.3049C149.549 17.9475 148.578 17.1732 147.62 16.9509C146.516 16.6946 146.515 17.3874 147.619 18.0415C148.366 18.484 149.127 18.602 149.319 18.3049ZM145.751 17.2509C146.311 16.9402 144.855 15.7634 143.907 15.7609C143.595 15.7601 143.547 15.7902 143.547 15.9896C143.547 16.1958 143.781 16.4853 144.233 16.8363C144.385 16.955 145.336 17.3379 145.496 17.3453C145.539 17.3472 145.653 17.3048 145.751 17.2509ZM148.803 16.4352C148.998 16.2331 148.932 15.9796 148.593 15.6283C147.783 14.7902 146.137 14.413 146.137 15.0657C146.137 15.7025 147.345 16.5302 148.299 16.5474C148.513 16.5512 148.74 16.5007 148.803 16.4352ZM157.358 18.845C156.81 18.6717 156.245 18.2862 155.178 17.3581C154.557 16.8185 153.424 15.8338 152.659 15.17C149.436 12.3737 149.06 11.9105 149.065 10.7447C149.066 10.24 149.126 9.91534 149.283 9.55994C149.593 8.85554 153.784 2.38675 154.244 1.90414C154.456 1.68094 154.837 1.3943 155.091 1.26716C155.901 0.861372 156.985 1.08485 157.806 1.82665C158.348 2.31639 162.978 7.52672 163.259 7.96396C163.687 8.62835 163.816 9.16287 163.689 9.74789C163.511 10.5733 159.849 17.9226 159.354 18.4506C158.922 18.9103 158.087 19.0754 157.358 18.845ZM158.61 15.1611C159.022 14.9328 159.206 14.1183 158.983 13.507C158.838 13.1102 158.436 12.7043 158.06 12.576C157.334 12.3279 156.709 13.1914 156.967 14.0846C157.137 14.6704 157.717 15.2633 158.121 15.2633C158.289 15.2633 158.509 15.2173 158.61 15.1611ZM154.755 11.6459C155.787 11.0934 155.095 8.96158 153.884 8.96158C152.761 8.96158 152.638 10.8115 153.711 11.564C154.079 11.8221 154.381 11.8458 154.755 11.6459ZM160.862 10.8319C161.338 10.3 161.247 9.36518 160.66 8.75774C159.817 7.88473 158.704 8.74268 159.089 9.96854C159.242 10.4565 159.394 10.6802 159.727 10.9073C160.122 11.177 160.58 11.1465 160.862 10.8319ZM157.117 7.27988C157.579 6.80064 157.509 5.829 156.966 5.18801C156.242 4.33416 155.273 4.61394 155.18 5.70363C155.075 6.93769 156.403 8.01867 157.117 7.27988ZM175.821 17.255C173.869 16.9425 172.044 16.6081 171.765 16.512C171.076 16.2746 170.568 15.9034 168.644 14.2341C166.205 12.1174 165.791 11.6308 165.933 11.0463C166.063 10.5106 167.255 10.2604 168.607 10.485C168.988 10.5483 170.536 10.7983 172.048 11.0405C174.926 11.5018 175.7 11.7049 176.493 12.2069C177.407 12.7856 180.82 15.5416 181.309 16.0955C182.059 16.9457 182.075 17.4039 181.363 17.7118C180.807 17.9525 179.509 17.8454 175.821 17.255ZM179.61 16.0415C179.61 15.609 178.516 14.9389 177.486 14.7406C177.003 14.6475 176.896 14.6544 176.768 14.7867C176.648 14.9106 176.64 14.9852 176.727 15.1539C176.944 15.5733 177.965 16.1 178.842 16.2449C179.398 16.3366 179.61 16.2803 179.61 16.0415ZM175.553 14.3044C175.734 13.8147 173.748 12.9102 172.948 13.1181C172.661 13.1927 172.624 13.4718 172.872 13.6966C173.555 14.3165 175.394 14.7334 175.553 14.3044ZM171.529 12.8173C171.655 12.7822 171.745 12.6803 171.745 12.5718C171.745 12.147 170.338 11.5506 169.472 11.608C169.096 11.6329 169.007 11.6748 168.986 11.8371C168.926 12.305 170.789 13.0228 171.529 12.8173ZM140.149 13.2204C139.863 12.9242 139.994 12.094 140.494 11.0426C140.649 10.7149 141.454 9.19824 142.282 7.6723C144.349 3.8625 144.433 3.77435 147.535 2.1728C151.262 0.248475 152.362 -0.181922 152.931 0.061975C153.206 0.18023 153.234 0.232132 153.234 0.629465C153.234 1.29833 152.78 2.12289 150.321 5.92429C147.674 10.0158 147.38 10.3591 145.993 10.9859C145.465 11.2242 144.178 11.8596 143.131 12.3978C141.512 13.2306 141.16 13.3764 140.764 13.3764C140.47 13.3764 140.245 13.3193 140.149 13.2204ZM143.305 9.95776C144.299 9.52772 145.199 8.02349 144.562 7.85789C143.818 7.66457 142.165 9.42262 142.591 9.95403C142.737 10.1359 142.891 10.1367 143.305 9.95776ZM149.187 4.59586C149.748 4.2914 150.357 3.44865 150.357 2.97631C150.357 2.6733 150.335 2.65082 150.035 2.65082C149.315 2.65082 148.206 3.93528 148.395 4.55084C148.463 4.77506 148.819 4.79528 149.187 4.59586Z" fill="#FCC26B"/>
<path d="M6.54 24.14C4.84667 24.14 3.44667 23.7467 2.34 22.96C1.24667 22.16 0.653333 20.9933 0.56 19.46H5.28C5.34667 20.2733 5.70667 20.68 6.36 20.68C6.6 20.68 6.8 20.6267 6.96 20.52C7.13333 20.4 7.22 20.22 7.22 19.98C7.22 19.6467 7.04 19.38 6.68 19.18C6.32 18.9667 5.76 18.7267 5 18.46C4.09333 18.14 3.34 17.8267 2.74 17.52C2.15333 17.2133 1.64667 16.7667 1.22 16.18C0.793333 15.5933 0.586667 14.84 0.6 13.92C0.6 13 0.833333 12.22 1.3 11.58C1.78 10.9267 2.42667 10.4333 3.24 10.1C4.06667 9.76667 4.99333 9.6 6.02 9.6C7.75333 9.6 9.12667 10 10.14 10.8C11.1667 11.6 11.7067 12.7267 11.76 14.18H6.98C6.96667 13.78 6.86667 13.4933 6.68 13.32C6.49333 13.1467 6.26667 13.06 6 13.06C5.81333 13.06 5.66 13.1267 5.54 13.26C5.42 13.38 5.36 13.5533 5.36 13.78C5.36 14.1 5.53333 14.3667 5.88 14.58C6.24 14.78 6.80667 15.0267 7.58 15.32C8.47333 15.6533 9.20667 15.9733 9.78 16.28C10.3667 16.5867 10.8733 17.0133 11.3 17.56C11.7267 18.1067 11.94 18.7933 11.94 19.62C11.94 20.4867 11.7267 21.2667 11.3 21.96C10.8733 22.64 10.2533 23.1733 9.44 23.56C8.62667 23.9467 7.66 24.14 6.54 24.14ZM30.52 9.84V24H26.1V16.94L23.92 24H20.12L17.94 16.94V24H13.5V9.84H18.94L22.06 18.34L25.1 9.84H30.52ZM36.9634 9.84V24H32.5234V9.84H36.9634ZM50.0888 9.84V13.36H46.3288V24H41.8888V13.36H38.1688V9.84H50.0888ZM55.733 13.38V15.12H60.133V18.46H55.733V20.46H60.733V24H51.293V9.84H60.733V13.38H55.733Z" fill="#FCC26B"/>
<path d="M9.338 43L6.279 37.158H6.256V43H1.15V26.716H8.74C10.0587 26.716 11.1857 26.9537 12.121 27.429C13.0563 27.889 13.754 28.5253 14.214 29.338C14.6893 30.1353 14.927 31.04 14.927 32.052C14.927 33.1407 14.6203 34.1067 14.007 34.95C13.409 35.7933 12.5427 36.399 11.408 36.767L14.95 43H9.338ZM6.256 33.754H8.28C8.77067 33.754 9.13867 33.6467 9.384 33.432C9.62933 33.202 9.752 32.8493 9.752 32.374C9.752 31.9447 9.62167 31.6073 9.361 31.362C9.11567 31.1167 8.75533 30.994 8.28 30.994H6.256V33.754ZM27.0002 40.539H21.5722L20.7672 43H15.4082L21.3652 26.716H27.2532L33.1872 43H27.8052L27.0002 40.539ZM25.7582 36.698L24.2862 32.167L22.8142 36.698H25.7582ZM49.9643 43H44.8583L39.4533 34.812V43H34.3473V26.716H39.4533L44.8583 35.042V26.716H49.9643V43ZM59.0561 26.716C60.7581 26.716 62.2454 27.061 63.5181 27.751C64.8061 28.441 65.7951 29.3993 66.4851 30.626C67.1751 31.8527 67.5201 33.248 67.5201 34.812C67.5201 36.3607 67.1751 37.756 66.4851 38.998C65.7951 40.24 64.8061 41.2213 63.5181 41.942C62.2454 42.6473 60.7581 43 59.0561 43H52.2711V26.716H59.0561ZM58.5961 38.446C59.7461 38.446 60.6584 38.1317 61.3331 37.503C62.0078 36.8743 62.3451 35.9773 62.3451 34.812C62.3451 33.6467 62.0078 32.7497 61.3331 32.121C60.6584 31.4923 59.7461 31.178 58.5961 31.178H57.3771V38.446H58.5961ZM77.2989 43.161C75.7655 43.161 74.3549 42.8007 73.0669 42.08C71.7942 41.3593 70.7822 40.3627 70.0309 39.09C69.2795 37.8173 68.9039 36.3837 68.9039 34.789C68.9039 33.1943 69.2795 31.7607 70.0309 30.488C70.7822 29.2153 71.7942 28.2263 73.0669 27.521C74.3549 26.8003 75.7655 26.44 77.2989 26.44C78.8322 26.44 80.2352 26.8003 81.5079 27.521C82.7805 28.2263 83.7849 29.2153 84.5209 30.488C85.2722 31.7607 85.6479 33.1943 85.6479 34.789C85.6479 36.3837 85.2722 37.8173 84.5209 39.09C83.7849 40.3627 82.7729 41.3593 81.4849 42.08C80.2122 42.8007 78.8169 43.161 77.2989 43.161ZM77.2989 38.4C78.3109 38.4 79.0929 38.078 79.6449 37.434C80.1969 36.7747 80.4729 35.893 80.4729 34.789C80.4729 33.6697 80.1969 32.788 79.6449 32.144C79.0929 31.4847 78.3109 31.155 77.2989 31.155C76.2715 31.155 75.4819 31.4847 74.9299 32.144C74.3779 32.788 74.1019 33.6697 74.1019 34.789C74.1019 35.893 74.3779 36.7747 74.9299 37.434C75.4819 38.078 76.2715 38.4 77.2989 38.4ZM107.063 26.716V43H101.98V34.881L99.4728 43H95.1028L92.5958 34.881V43H87.4898V26.716H93.7458L97.3338 36.491L100.83 26.716H107.063ZM114.473 26.716V43H109.367V26.716H114.473ZM122.437 38.929H128.969V43H116.779V39.159L123.219 30.764H116.779V26.716H128.969V30.557L122.437 38.929ZM136.372 30.787V32.788H141.432V36.629H136.372V38.929H142.122V43H131.266V26.716H142.122V30.787H136.372ZM152.234 43L149.175 37.158H149.152V43H144.046V26.716H151.636C152.955 26.716 154.082 26.9537 155.017 27.429C155.953 27.889 156.65 28.5253 157.11 29.338C157.586 30.1353 157.823 31.04 157.823 32.052C157.823 33.1407 157.517 34.1067 156.903 34.95C156.305 35.7933 155.439 36.399 154.304 36.767L157.846 43H152.234ZM149.152 33.754H151.176C151.667 33.754 152.035 33.6467 152.28 33.432C152.526 33.202 152.648 32.8493 152.648 32.374C152.648 31.9447 152.518 31.6073 152.257 31.362C152.012 31.1167 151.652 30.994 151.176 30.994H149.152V33.754Z" fill="#FCC26B"/>
</svg>
